<svg xmlns="http://www.w3.org/2000/svg" xmlns:xlink="http://www.w3.org/1999/xlink" width="500" zoomAndPan="magnify" viewBox="0 0 375 374.999991" height="500" preserveAspectRatio="xMidYMid meet" version="1.0"><defs><filter x="0%" y="0%" width="100%" height="100%" id="445c2e5b51"><feColorMatrix values="0 0 0 0 1 0 0 0 0 1 0 0 0 0 1 0 0 0 1 0" color-interpolation-filters="sRGB"/></filter><g/><mask id="67adbb3e3c"><g filter="url(#445c2e5b51)"><rect x="-37.5" width="450" fill="#000000" y="-37.499999" height="449.999989" fill-opacity="0.48"/></g></mask><clipPath id="7dde9aebca"><path d="M 29 11 L 194 11 L 194 312 L 29 312 Z M 29 11 " clip-rule="nonzero"/></clipPath><clipPath id="369f5ecfc5"><path d="M 112.859375 -19.566406 L 260.117188 38.382812 L 146.136719 328.011719 L -1.121094 270.0625 Z M 112.859375 -19.566406 " clip-rule="nonzero"/></clipPath><clipPath id="2c3c98a824"><path d="M 112.859375 -19.566406 L 260.117188 38.382812 L 146.136719 328.011719 L -1.121094 270.0625 Z M 112.859375 -19.566406 " clip-rule="nonzero"/></clipPath><clipPath id="3dafae4eb3"><rect x="0" width="252" y="0" height="323"/></clipPath></defs><g mask="url(#67adbb3e3c)"><g transform="matrix(1, 0, 0, 1, 66, 0)"><g clip-path="url(#3dafae4eb3)"><g clip-path="url(#7dde9aebca)"><g clip-path="url(#369f5ecfc5)"><g clip-path="url(#2c3c98a824)"><path fill="#ffffff" d="M 61.390625 217.402344 C 69.082031 212.738281 76.976562 209.445312 86.890625 202.59375 C 83.773438 203.070312 82.117188 203.300781 79.378906 203.515625 C 91.726562 199.121094 105.371094 191.421875 113.03125 181.300781 C 116.824219 176.328125 123.933594 158.097656 123.894531 148.6875 C 120.339844 150.625 116.625 152.632812 113.011719 154.546875 C 117.226562 151.441406 123.664062 145.46875 126.992188 141.332031 C 121.132812 145.152344 114.984375 147.632812 108.902344 149.59375 C 116.476562 145.566406 123.683594 140.914062 126.363281 138.429688 C 129.933594 116.21875 149.179688 104.667969 162.5625 89.515625 L 153.277344 88.378906 C 158.28125 87.765625 163.6875 87.167969 166.691406 85.425781 C 180.511719 71.398438 200.96875 36.367188 190.953125 11.667969 C 190.710938 23.347656 185.25 35.148438 175.644531 42.261719 C 174.980469 45.332031 174.496094 47.253906 173.140625 50.871094 L 173.488281 43.25 C 167.625 50.878906 155.367188 58.507812 148.679688 63.566406 C 147.53125 66.65625 146.429688 69.285156 144.742188 72.703125 L 145.96875 66.652344 C 128.378906 78.3125 107.867188 86.164062 91.855469 97.96875 C 75.09375 110.292969 66.6875 125.425781 64.804688 152.523438 C 62.832031 138.339844 66.925781 123.613281 70.753906 116.476562 C 60.121094 124.816406 51.652344 139.246094 48.964844 152.480469 L 47.402344 149.007812 C 41.835938 160.90625 43.171875 174.976562 46.414062 190.613281 L 42.453125 183.199219 C 44.429688 195.480469 49.316406 207.273438 52.46875 213.957031 C 59.964844 184.714844 72.929688 156.265625 89.324219 133.449219 C 99.628906 119.199219 111.265625 107.101562 124.253906 95.539062 C 130.550781 89.917969 166.34375 63.304688 173.394531 56.28125 C 165.488281 65.824219 130.320312 92.753906 123.101562 99.507812 C 97.28125 123.785156 80.464844 147.320312 65.25 184.074219 C 61.203125 193.847656 56.933594 206.9375 53.914062 217.382812 L 45.011719 213.882812 C 44.304688 213.605469 43.425781 213.9375 43.125 214.703125 C 42.847656 215.410156 43.179688 216.292969 43.945312 216.59375 L 64.515625 224.6875 C 65.222656 224.964844 66.101562 224.632812 66.402344 223.863281 C 66.679688 223.15625 66.347656 222.277344 65.582031 221.976562 L 56.503906 218.40625 C 58.867188 209.804688 62.9375 197.386719 68.371094 184.28125 C 77.363281 162.636719 89.464844 139.496094 98.601562 130.976562 C 86.300781 147.710938 69.394531 184.273438 61.390625 217.402344 Z M 34.097656 272.40625 C 57.578125 290.21875 89.617188 301.671875 119.058594 306.589844 C 152.652344 312.1875 133.125 298.171875 113.625 287.367188 C 106.144531 283.199219 75.597656 265.871094 86.816406 261.574219 C 98.472656 257.039062 124.472656 277.617188 134.796875 269.363281 C 142.398438 263.367188 142.101562 263.253906 154.824219 264.992188 C 156.636719 265.230469 157.425781 265.132812 158.265625 264.375 C 156.992188 265.710938 155.273438 265.238281 152.402344 264.921875 C 140.023438 263.523438 141.351562 267.925781 135.71875 272.039062 C 126.324219 278.957031 94.519531 261.199219 90.554688 265.222656 C 86.332031 269.550781 122.203125 288.226562 127.984375 291.863281 C 146.125 303.355469 150.050781 313.613281 126.714844 311.167969 C 94.871094 307.6875 57.742188 292.394531 34.097656 272.40625 Z M 29.261719 242.324219 C 32.894531 250.902344 35.945312 259.929688 33.640625 270.457031 L 33.816406 270.523438 L 42.90625 247.421875 C 41.902344 246.6875 41.472656 245.363281 41.960938 244.125 C 42.515625 242.710938 44.160156 241.996094 45.574219 242.550781 C 46.988281 243.109375 47.703125 244.75 47.144531 246.164062 C 46.683594 247.34375 45.441406 248.078125 44.203125 247.933594 L 35.136719 270.976562 L 35.3125 271.046875 C 40.800781 261.769531 49.125 257.21875 57.6875 253.445312 C 57.621094 245.320312 59.015625 236.066406 61.21875 226.316406 L 45.1875 220.007812 C 40.191406 228.726562 34.871094 236.367188 29.261719 242.324219 Z M 29.261719 242.324219 " fill-opacity="1" fill-rule="evenodd"/></g></g></g></g></g></g><g fill="#ffffff" fill-opacity="1"><g transform="translate(27.23754, 206.55757)"><g><path d="M 58.640625 -17.375 C 58.640625 -11.394531 56.554688 -6.679688 52.390625 -3.234375 C 48.628906 -0.140625 44.050781 1.40625 38.65625 1.40625 C 36.78125 1.40625 34.644531 1.335938 32.25 1.203125 C 26.78125 0.890625 23.457031 0.734375 22.28125 0.734375 C 21.0625 0.734375 19.84375 0.785156 18.625 0.890625 L 13.15625 1.359375 C 10.195312 1.359375 8.71875 0.765625 8.71875 -0.421875 C 8.71875 -1.984375 10.210938 -3.304688 13.203125 -4.390625 C 14.660156 -4.910156 15.390625 -5.515625 15.390625 -6.203125 C 15.390625 -9.960938 15.40625 -12.921875 15.4375 -15.078125 L 15.703125 -33.546875 C 15.703125 -37.722656 15.613281 -42.785156 15.4375 -48.734375 L 15.234375 -59.0625 C 15.234375 -59.582031 13.867188 -60.300781 11.140625 -61.21875 C 8.410156 -62.144531 7.046875 -63.550781 7.046875 -65.4375 C 7.046875 -67.175781 8.242188 -68.046875 10.640625 -68.046875 C 11.203125 -68.046875 13.273438 -67.882812 16.859375 -67.5625 C 18.867188 -67.394531 20.675781 -67.3125 22.28125 -67.3125 C 23.945312 -67.3125 26.457031 -67.40625 29.8125 -67.59375 C 33.175781 -67.789062 35.691406 -67.890625 37.359375 -67.890625 C 40.703125 -67.890625 44.285156 -66.582031 48.109375 -63.96875 C 52.492188 -61.007812 54.6875 -57.617188 54.6875 -53.796875 C 54.6875 -50.316406 53.945312 -47.003906 52.46875 -43.859375 C 50.988281 -40.710938 49.238281 -38.632812 47.21875 -37.625 C 50.625 -36.46875 53.40625 -33.875 55.5625 -29.84375 C 57.613281 -26.050781 58.640625 -21.894531 58.640625 -17.375 Z M 46.390625 -52.75 C 46.390625 -59.8125 41.8125 -63.34375 32.65625 -63.34375 C 28.175781 -63.34375 25.410156 -62.351562 24.359375 -60.375 C 23.734375 -59.1875 23.421875 -56.003906 23.421875 -50.828125 C 23.421875 -46.234375 23.492188 -43.519531 23.640625 -42.6875 C 24.265625 -39.34375 25.898438 -37.671875 28.546875 -37.671875 C 34.660156 -37.671875 39.054688 -38.644531 41.734375 -40.59375 C 44.835938 -42.882812 46.390625 -46.9375 46.390625 -52.75 Z M 51.34375 -19.203125 C 51.34375 -23.273438 49.757812 -26.71875 46.59375 -29.53125 C 43.425781 -32.351562 39.617188 -33.765625 35.171875 -33.765625 C 31.128906 -33.765625 28.691406 -33.660156 27.859375 -33.453125 C 25.460938 -32.785156 24.265625 -31.046875 24.265625 -28.234375 L 24.265625 -9.65625 C 24.265625 -5.238281 27.8125 -3.03125 34.90625 -3.03125 C 39.570312 -3.03125 43.476562 -4.554688 46.625 -7.609375 C 49.769531 -10.671875 51.34375 -14.535156 51.34375 -19.203125 Z M 51.34375 -19.203125 "/></g></g></g><g fill="#ffffff" fill-opacity="1"><g transform="translate(96.539899, 206.55757)"><g><path d="M 35.953125 -89.953125 C 35.953125 -89.671875 35.757812 -89.179688 35.375 -88.484375 C 34.988281 -87.796875 34.398438 -86.773438 33.609375 -85.421875 C 32.453125 -84.234375 31.003906 -82.316406 29.265625 -79.671875 C 29.128906 -79.328125 28.679688 -77.816406 27.921875 -75.140625 L 24.78125 -64.078125 C 22.769531 -56.835938 19.847656 -46.125 16.015625 -31.9375 C 12.890625 -20.351562 11.328125 -14.421875 11.328125 -14.140625 C 11.328125 -13.367188 11.96875 -12.671875 13.25 -12.046875 C 14.363281 -11.523438 15.335938 -11.265625 16.171875 -11.265625 C 16.660156 -11.265625 17.359375 -11.429688 18.265625 -11.765625 C 19.171875 -12.097656 19.863281 -12.265625 20.34375 -12.265625 C 21.425781 -12.265625 21.96875 -11.707031 21.96875 -10.59375 C 21.96875 -8.820312 20.109375 -6.578125 16.390625 -3.859375 C 12.804688 -1.285156 10.054688 0 8.140625 0 C 3.929688 0 1.828125 -1.804688 1.828125 -5.421875 C 1.828125 -6.609375 2.851562 -10.957031 4.90625 -18.46875 C 6.226562 -23.195312 7.550781 -27.925781 8.875 -32.65625 L 14.921875 -55.78125 C 16.171875 -59.78125 17.40625 -63.796875 18.625 -67.828125 C 20.46875 -73.773438 21.390625 -77.515625 21.390625 -79.046875 C 21.390625 -80.160156 20.378906 -81.359375 18.359375 -82.640625 C 16.347656 -83.929688 15.34375 -84.820312 15.34375 -85.3125 C 15.34375 -85.9375 15.929688 -86.351562 17.109375 -86.5625 C 19.023438 -86.664062 21.84375 -87.015625 25.5625 -87.609375 C 26.050781 -87.742188 27.597656 -88.367188 30.203125 -89.484375 C 32.398438 -90.421875 33.863281 -90.890625 34.59375 -90.890625 C 35.5 -90.890625 35.953125 -90.578125 35.953125 -89.953125 Z M 35.953125 -89.953125 "/></g></g></g><g fill="#ffffff" fill-opacity="1"><g transform="translate(131.40787, 206.55757)"><g><path d="M 37.984375 -30.78125 C 37.984375 -23.96875 35.707031 -17.289062 31.15625 -10.75 C 26.144531 -3.582031 20.382812 0 13.875 0 C 9.664062 0 6.445312 -1.460938 4.21875 -4.390625 C 2.207031 -7.023438 1.203125 -10.5 1.203125 -14.8125 C 1.203125 -21.976562 3.375 -28.625 7.71875 -34.75 C 12.519531 -41.53125 18.363281 -44.921875 25.25 -44.921875 C 33.738281 -44.921875 37.984375 -40.207031 37.984375 -30.78125 Z M 30.84375 -30.890625 C 30.84375 -36.035156 28.789062 -38.609375 24.6875 -38.609375 C 20.40625 -38.609375 16.4375 -35.492188 12.78125 -29.265625 C 9.507812 -23.671875 7.875 -18.5625 7.875 -13.9375 C 7.875 -9.40625 10.117188 -7.140625 14.609375 -7.140625 C 19.234375 -7.140625 23.195312 -10.03125 26.5 -15.8125 C 29.394531 -20.851562 30.84375 -25.878906 30.84375 -30.890625 Z M 30.84375 -30.890625 "/></g></g></g><g fill="#ffffff" fill-opacity="1"><g transform="translate(177.336584, 206.55757)"><g><path d="M 41.90625 -37.46875 C 41.90625 -36.3125 40.984375 -35.523438 39.140625 -35.109375 C 36.804688 -34.585938 35.304688 -33.894531 34.640625 -33.03125 C 34.117188 -32.363281 33.703125 -30.796875 33.390625 -28.328125 C 33.046875 -25.441406 32.75 -23.671875 32.5 -23.015625 C 31.351562 -19.847656 28.765625 -17.0625 24.734375 -14.65625 C 21.078125 -12.5 17.40625 -11.25 13.71875 -10.90625 C 10.65625 -8.988281 9.125 -6.625 9.125 -3.8125 C 9.125 -2.207031 11.28125 -0.3125 15.59375 1.875 C 22.175781 5.21875 26.160156 7.394531 27.546875 8.40625 C 31.859375 11.457031 34.015625 14.847656 34.015625 18.578125 C 34.015625 23.203125 31.25 26.660156 25.71875 28.953125 C 21.613281 30.660156 16.832031 31.515625 11.375 31.515625 C 5.425781 31.515625 -0.117188 30.472656 -5.265625 28.390625 C -12.015625 25.640625 -15.390625 21.742188 -15.390625 16.703125 C -15.390625 13.253906 -13.375 10.539062 -9.34375 8.5625 C -6.101562 6.957031 -2.554688 6.15625 1.296875 6.15625 C 3.984375 6.15625 5.328125 5.441406 5.328125 4.015625 C 5.328125 3.835938 5.304688 3.679688 5.265625 3.546875 C 2.867188 0.972656 1.671875 -1.234375 1.671875 -3.078125 C 1.671875 -4.992188 2.753906 -7.03125 4.921875 -9.1875 C 7.097656 -11.34375 8.273438 -13.203125 8.453125 -14.765625 C 4.941406 -19.109375 3.1875 -23.300781 3.1875 -27.34375 C 3.1875 -31.3125 4.613281 -35.15625 7.46875 -38.875 C 10.519531 -42.90625 13.960938 -44.921875 17.796875 -44.921875 C 21.023438 -44.921875 26.296875 -43.390625 33.609375 -40.328125 C 35.972656 -41.128906 37.625 -41.53125 38.5625 -41.53125 C 40.789062 -41.53125 41.90625 -40.175781 41.90625 -37.46875 Z M 26.765625 -33.96875 C 26.765625 -35.78125 26.257812 -37.328125 25.25 -38.609375 C 24.175781 -40.035156 22.75 -40.75 20.96875 -40.75 C 17.664062 -40.75 14.921875 -38.660156 12.734375 -34.484375 C 10.890625 -30.972656 9.96875 -27.390625 9.96875 -23.734375 C 9.96875 -21.929688 10.4375 -20.300781 11.375 -18.84375 C 12.414062 -17.207031 13.804688 -16.390625 15.546875 -16.390625 C 18.816406 -16.390625 21.597656 -18.578125 23.890625 -22.953125 C 25.804688 -26.640625 26.765625 -30.3125 26.765625 -33.96875 Z M 26.5 17.84375 C 26.5 14.644531 24.238281 12.316406 19.71875 10.859375 C 16.625 9.847656 13.023438 9.34375 8.921875 9.34375 C 4.742188 9.34375 1.144531 9.773438 -1.875 10.640625 C -6.4375 11.992188 -8.71875 14.171875 -8.71875 17.171875 C -8.71875 20.753906 -6.140625 23.394531 -0.984375 25.09375 C 2.597656 26.238281 6.679688 26.8125 11.265625 26.8125 C 14.429688 26.8125 17.582031 26.082031 20.71875 24.625 C 24.570312 22.882812 26.5 20.625 26.5 17.84375 Z M 26.5 17.84375 "/></g></g></g><g fill="#ffffff" fill-opacity="1"><g transform="translate(227.960897, 206.55757)"><g><path d="M 24.78125 -55.984375 C 24.78125 -54.316406 24.25 -52.976562 23.1875 -51.96875 C 22.125 -50.957031 20.757812 -50.453125 19.09375 -50.453125 C 15.613281 -50.453125 13.875 -52.125 13.875 -55.46875 C 13.875 -57.132812 14.421875 -58.515625 15.515625 -59.609375 C 16.617188 -60.703125 18.003906 -61.25 19.671875 -61.25 C 23.078125 -61.25 24.78125 -59.492188 24.78125 -55.984375 Z M 22.234375 -42.6875 C 22.234375 -41.570312 21.601562 -39.96875 20.34375 -37.875 C 19.375 -36.34375 18.421875 -34.796875 17.484375 -33.234375 C 16.085938 -30.347656 14.675781 -26.765625 13.25 -22.484375 C 11.582031 -17.410156 10.75 -13.742188 10.75 -11.484375 C 10.75 -9.804688 11.929688 -8.96875 14.296875 -8.96875 C 14.816406 -8.96875 15.492188 -9.21875 16.328125 -9.71875 C 17.160156 -10.226562 17.820312 -10.484375 18.3125 -10.484375 C 19.25 -10.484375 19.71875 -10.015625 19.71875 -9.078125 C 19.71875 -7.304688 17.945312 -5.304688 14.40625 -3.078125 C 11.0625 -1.023438 8.414062 0 6.46875 0 C 3.300781 0 1.71875 -2.117188 1.71875 -6.359375 C 1.71875 -9.046875 2.976562 -13.40625 5.5 -19.4375 C 8.019531 -25.46875 9.28125 -29.269531 9.28125 -30.84375 C 9.28125 -31.53125 8.535156 -32.066406 7.046875 -32.453125 C 4.992188 -32.941406 3.929688 -33.203125 3.859375 -33.234375 C 3.992188 -34.660156 6.128906 -36.960938 10.265625 -40.140625 C 14.410156 -43.328125 17.234375 -44.921875 18.734375 -44.921875 C 21.066406 -44.921875 22.234375 -44.175781 22.234375 -42.6875 Z M 22.234375 -42.6875 "/></g></g></g><g fill="#ffffff" fill-opacity="1"><g transform="translate(261.628882, 206.55757)"><g><path d="M 52.234375 -87.078125 C 52.234375 -86.316406 51.921875 -85.363281 51.296875 -84.21875 C 50.554688 -82.96875 49.84375 -82.34375 49.15625 -82.34375 C 48.488281 -82.34375 47.519531 -82.4375 46.25 -82.625 C 44.976562 -82.8125 44.015625 -82.90625 43.359375 -82.90625 C 40.222656 -82.90625 37.785156 -81.5 36.046875 -78.6875 C 35.460938 -77.75 34.054688 -73.382812 31.828125 -65.59375 C 29.597656 -57.800781 28.484375 -53.363281 28.484375 -52.28125 C 28.484375 -51.863281 28.847656 -51.472656 29.578125 -51.109375 C 30.316406 -50.742188 30.910156 -50.5625 31.359375 -50.5625 C 31.773438 -50.5625 32.390625 -50.695312 33.203125 -50.96875 C 34.023438 -51.25 34.644531 -51.390625 35.0625 -51.390625 C 36.59375 -51.390625 37.359375 -50.4375 37.359375 -48.53125 C 37.359375 -45.8125 36.472656 -44.207031 34.703125 -43.71875 C 32.785156 -43.445312 30.867188 -43.1875 28.953125 -42.9375 C 26.523438 -42.175781 24.769531 -40.160156 23.6875 -36.890625 C 23.613281 -36.679688 23.144531 -34.679688 22.28125 -30.890625 C 21.863281 -29.078125 19.707031 -21.195312 15.8125 -7.25 L 9.234375 16.28125 C 8.710938 18.195312 7.671875 20.054688 6.109375 21.859375 C 4.328125 23.953125 2.566406 25 0.828125 25 C -1.597656 25 -3.859375 24.457031 -5.953125 23.375 C -8.453125 22.050781 -9.703125 20.273438 -9.703125 18.046875 C -9.703125 15.785156 -8.484375 14.65625 -6.046875 14.65625 C -5.628906 14.65625 -5.003906 14.742188 -4.171875 14.921875 C -3.335938 15.097656 -2.710938 15.1875 -2.296875 15.1875 C -0.523438 15.1875 0.863281 14.4375 1.875 12.9375 C 2.675781 11.757812 5.335938 3.289062 9.859375 -12.46875 C 14.378906 -28.226562 16.640625 -36.90625 16.640625 -38.5 C 16.640625 -39.65625 16.132812 -40.234375 15.125 -40.234375 C 14.570312 -40.234375 13.773438 -40.132812 12.734375 -39.9375 C 11.691406 -39.75 10.890625 -39.65625 10.328125 -39.65625 C 8.628906 -39.65625 7.78125 -40.40625 7.78125 -41.90625 C 7.78125 -44.195312 9.601562 -45.953125 13.25 -47.171875 C 17.320312 -48.554688 19.617188 -49.84375 20.140625 -51.03125 C 20.242188 -51.238281 20.695312 -52.976562 21.5 -56.25 L 24.265625 -67.359375 C 26.316406 -75.609375 28.351562 -81.15625 30.375 -84 C 33.632812 -88.59375 38.816406 -90.890625 45.921875 -90.890625 C 47.171875 -90.890625 48.472656 -90.5625 49.828125 -89.90625 C 51.429688 -89.132812 52.234375 -88.191406 52.234375 -87.078125 Z M 52.234375 -87.078125 "/></g></g></g><g fill="#ffffff" fill-opacity="1"><g transform="translate(306.04457, 206.55757)"><g><path d="M 36.421875 -37.78125 C 36.421875 -28.101562 33.550781 -18.15625 27.8125 -7.9375 C 22.382812 1.695312 15.601562 9.628906 7.46875 15.859375 C -0.5 21.953125 -9.71875 25 -20.1875 25 C -22.59375 25 -24.992188 24.367188 -27.390625 23.109375 C -30.273438 21.648438 -31.71875 19.84375 -31.71875 17.6875 C -31.71875 16.507812 -30.882812 15.921875 -29.21875 15.921875 L -28.90625 15.921875 C -25.945312 18.078125 -24.171875 19.3125 -23.578125 19.625 C -21.359375 20.9375 -19.34375 21.59375 -17.53125 21.59375 C -7.300781 21.59375 1.914062 14.898438 10.125 1.515625 C 13.1875 -3.492188 14.71875 -8.800781 14.71875 -14.40625 C 14.71875 -17.082031 14.367188 -20.421875 13.671875 -24.421875 C 12.867188 -29.078125 11.929688 -32.171875 10.859375 -33.703125 C 10.816406 -33.742188 9.738281 -34.859375 7.625 -37.046875 C 6.539062 -38.117188 6 -39.597656 6 -41.484375 C 6 -43.773438 7.515625 -44.921875 10.546875 -44.921875 C 12.597656 -44.921875 14.28125 -43.753906 15.59375 -41.421875 C 16.289062 -40.171875 17.285156 -35.128906 18.578125 -26.296875 C 19.753906 -18.472656 21.109375 -14.25 22.640625 -13.625 C 24.941406 -13.9375 26.910156 -17.238281 28.546875 -23.53125 C 29.796875 -28.507812 30.421875 -32.753906 30.421875 -36.265625 C 30.421875 -36.921875 30.332031 -37.914062 30.15625 -39.25 C 29.976562 -40.59375 29.890625 -41.597656 29.890625 -42.265625 C 29.890625 -44.035156 30.796875 -44.921875 32.609375 -44.921875 C 35.148438 -44.921875 36.421875 -42.539062 36.421875 -37.78125 Z M 36.421875 -37.78125 "/></g></g></g><g fill="#ffffff" fill-opacity="1"><g transform="translate(112.414342, 252.035484)"><g><path d="M 7.25 -1.390625 C 7.457031 -1.390625 7.628906 -1.316406 7.765625 -1.171875 C 7.910156 -1.035156 7.984375 -0.875 7.984375 -0.6875 C 7.984375 -0.476562 7.910156 -0.3125 7.765625 -0.1875 C 7.628906 -0.0625 7.457031 0 7.25 0 L 1.984375 0 C 1.785156 0 1.613281 -0.0664062 1.46875 -0.203125 C 1.320312 -0.347656 1.25 -0.523438 1.25 -0.734375 L 1.25 -9.875 C 1.25 -10.070312 1.320312 -10.238281 1.46875 -10.375 C 1.613281 -10.519531 1.785156 -10.59375 1.984375 -10.59375 L 7.25 -10.59375 C 7.457031 -10.59375 7.628906 -10.523438 7.765625 -10.390625 C 7.910156 -10.265625 7.984375 -10.097656 7.984375 -9.890625 C 7.984375 -9.679688 7.910156 -9.515625 7.765625 -9.390625 C 7.628906 -9.265625 7.457031 -9.203125 7.25 -9.203125 L 2.75 -9.203125 L 2.75 -6.109375 L 6.578125 -6.109375 C 6.785156 -6.109375 6.957031 -6.039062 7.09375 -5.90625 C 7.226562 -5.78125 7.296875 -5.617188 7.296875 -5.421875 C 7.296875 -5.210938 7.226562 -5.046875 7.09375 -4.921875 C 6.957031 -4.796875 6.785156 -4.734375 6.578125 -4.734375 L 2.75 -4.734375 L 2.75 -1.390625 Z M 7.25 -1.390625 "/></g></g></g><g fill="#ffffff" fill-opacity="1"><g transform="translate(130.922132, 252.035484)"><g><path d="M 8.8125 -9.984375 C 9.050781 -9.847656 9.171875 -9.644531 9.171875 -9.375 C 9.171875 -9.1875 9.113281 -9.019531 9 -8.875 C 8.875 -8.707031 8.707031 -8.625 8.5 -8.625 C 8.351562 -8.625 8.210938 -8.660156 8.078125 -8.734375 C 7.453125 -9.085938 6.78125 -9.265625 6.0625 -9.265625 C 5.300781 -9.265625 4.628906 -9.097656 4.046875 -8.765625 C 3.460938 -8.429688 3.007812 -7.960938 2.6875 -7.359375 C 2.363281 -6.765625 2.203125 -6.078125 2.203125 -5.296875 C 2.203125 -4.460938 2.367188 -3.738281 2.703125 -3.125 C 3.035156 -2.519531 3.492188 -2.054688 4.078125 -1.734375 C 4.671875 -1.421875 5.332031 -1.265625 6.0625 -1.265625 C 6.800781 -1.265625 7.472656 -1.445312 8.078125 -1.8125 C 8.203125 -1.875 8.335938 -1.90625 8.484375 -1.90625 C 8.703125 -1.90625 8.878906 -1.820312 9.015625 -1.65625 C 9.128906 -1.5 9.1875 -1.335938 9.1875 -1.171875 C 9.1875 -1.046875 9.15625 -0.929688 9.09375 -0.828125 C 9.03125 -0.722656 8.941406 -0.640625 8.828125 -0.578125 C 8.429688 -0.359375 7.988281 -0.179688 7.5 -0.046875 C 7.007812 0.0859375 6.53125 0.15625 6.0625 0.15625 C 5.082031 0.15625 4.179688 -0.0625 3.359375 -0.5 C 2.535156 -0.9375 1.878906 -1.566406 1.390625 -2.390625 C 0.898438 -3.222656 0.65625 -4.191406 0.65625 -5.296875 C 0.65625 -6.316406 0.890625 -7.238281 1.359375 -8.0625 C 1.828125 -8.882812 2.472656 -9.53125 3.296875 -10 C 4.117188 -10.46875 5.039062 -10.703125 6.0625 -10.703125 C 7.039062 -10.703125 7.957031 -10.460938 8.8125 -9.984375 Z M 8.8125 -9.984375 "/></g></g></g><g fill="#ffffff" fill-opacity="1"><g transform="translate(150.459487, 252.035484)"><g><path d="M 8.890625 -10.59375 C 9.109375 -10.59375 9.285156 -10.523438 9.421875 -10.390625 C 9.566406 -10.253906 9.640625 -10.082031 9.640625 -9.875 L 9.640625 -0.734375 C 9.628906 -0.523438 9.550781 -0.347656 9.40625 -0.203125 C 9.269531 -0.0664062 9.09375 0 8.875 0 C 8.664062 0 8.488281 -0.0664062 8.34375 -0.203125 C 8.195312 -0.347656 8.125 -0.523438 8.125 -0.734375 L 8.125 -4.65625 L 2.75 -4.65625 L 2.75 -0.734375 C 2.75 -0.523438 2.671875 -0.347656 2.515625 -0.203125 C 2.367188 -0.0664062 2.195312 0 2 0 C 1.78125 0 1.597656 -0.0664062 1.453125 -0.203125 C 1.316406 -0.347656 1.25 -0.523438 1.25 -0.734375 L 1.25 -9.875 C 1.25 -10.070312 1.320312 -10.238281 1.46875 -10.375 C 1.613281 -10.519531 1.796875 -10.59375 2.015625 -10.59375 C 2.210938 -10.59375 2.382812 -10.519531 2.53125 -10.375 C 2.675781 -10.238281 2.75 -10.070312 2.75 -9.875 L 2.75 -6.0625 L 8.125 -6.0625 L 8.125 -9.875 C 8.125 -10.070312 8.195312 -10.238281 8.34375 -10.375 C 8.5 -10.519531 8.679688 -10.59375 8.890625 -10.59375 Z M 8.890625 -10.59375 "/></g></g></g><g fill="#ffffff" fill-opacity="1"><g transform="translate(171.223215, 252.035484)"><g><path d="M 10.890625 -5.296875 C 10.890625 -4.273438 10.664062 -3.347656 10.21875 -2.515625 C 9.78125 -1.691406 9.171875 -1.039062 8.390625 -0.5625 C 7.617188 -0.0820312 6.742188 0.15625 5.765625 0.15625 C 4.785156 0.15625 3.90625 -0.0820312 3.125 -0.5625 C 2.351562 -1.039062 1.75 -1.691406 1.3125 -2.515625 C 0.875 -3.347656 0.65625 -4.273438 0.65625 -5.296875 C 0.65625 -6.316406 0.875 -7.238281 1.3125 -8.0625 C 1.75 -8.894531 2.351562 -9.550781 3.125 -10.03125 C 3.90625 -10.507812 4.785156 -10.75 5.765625 -10.75 C 6.742188 -10.75 7.617188 -10.507812 8.390625 -10.03125 C 9.171875 -9.550781 9.78125 -8.894531 10.21875 -8.0625 C 10.664062 -7.238281 10.890625 -6.316406 10.890625 -5.296875 Z M 9.328125 -5.296875 C 9.328125 -6.054688 9.175781 -6.738281 8.875 -7.34375 C 8.570312 -7.957031 8.148438 -8.4375 7.609375 -8.78125 C 7.066406 -9.132812 6.453125 -9.3125 5.765625 -9.3125 C 5.078125 -9.3125 4.460938 -9.140625 3.921875 -8.796875 C 3.390625 -8.453125 2.96875 -7.972656 2.65625 -7.359375 C 2.351562 -6.753906 2.203125 -6.066406 2.203125 -5.296875 C 2.203125 -4.535156 2.351562 -3.847656 2.65625 -3.234375 C 2.96875 -2.628906 3.390625 -2.148438 3.921875 -1.796875 C 4.460938 -1.453125 5.078125 -1.28125 5.765625 -1.28125 C 6.453125 -1.28125 7.066406 -1.453125 7.609375 -1.796875 C 8.148438 -2.148438 8.570312 -2.628906 8.875 -3.234375 C 9.175781 -3.847656 9.328125 -4.535156 9.328125 -5.296875 Z M 9.328125 -5.296875 "/></g></g></g><g fill="#ffffff" fill-opacity="1"><g transform="translate(192.637984, 252.035484)"><g><path d="M 7.328125 -5.78125 C 7.878906 -5.59375 8.332031 -5.273438 8.6875 -4.828125 C 9.050781 -4.390625 9.234375 -3.820312 9.234375 -3.125 C 9.234375 -2 8.90625 -1.195312 8.25 -0.71875 C 7.601562 -0.238281 6.8125 0 5.875 0 L 1.984375 0 C 1.785156 0 1.613281 -0.0664062 1.46875 -0.203125 C 1.320312 -0.347656 1.25 -0.523438 1.25 -0.734375 L 1.25 -9.875 C 1.25 -10.070312 1.320312 -10.238281 1.46875 -10.375 C 1.613281 -10.519531 1.785156 -10.59375 1.984375 -10.59375 L 5.875 -10.59375 C 6.789062 -10.59375 7.488281 -10.363281 7.96875 -9.90625 C 8.445312 -9.457031 8.6875 -8.804688 8.6875 -7.953125 C 8.6875 -7.460938 8.570312 -7.03125 8.34375 -6.65625 C 8.113281 -6.28125 7.773438 -5.988281 7.328125 -5.78125 Z M 7.125 -7.71875 C 7.125 -8.195312 6.992188 -8.554688 6.734375 -8.796875 C 6.484375 -9.046875 6.125 -9.171875 5.65625 -9.171875 L 2.796875 -9.171875 L 2.796875 -6.21875 L 5.6875 -6.21875 C 6.101562 -6.226562 6.445312 -6.363281 6.71875 -6.625 C 6.988281 -6.882812 7.125 -7.25 7.125 -7.71875 Z M 5.859375 -1.390625 C 6.410156 -1.390625 6.851562 -1.53125 7.1875 -1.8125 C 7.519531 -2.101562 7.6875 -2.539062 7.6875 -3.125 C 7.6875 -4.238281 7.050781 -4.796875 5.78125 -4.796875 L 2.796875 -4.796875 L 2.796875 -1.390625 Z M 5.859375 -1.390625 "/></g></g></g><g fill="#ffffff" fill-opacity="1"><g transform="translate(212.40244, 252.035484)"><g><path d="M 7.09375 -1.40625 C 7.3125 -1.40625 7.488281 -1.335938 7.625 -1.203125 C 7.757812 -1.078125 7.828125 -0.910156 7.828125 -0.703125 C 7.828125 -0.492188 7.757812 -0.320312 7.625 -0.1875 C 7.488281 -0.0625 7.3125 0 7.09375 0 L 1.984375 0 C 1.773438 0 1.597656 -0.0664062 1.453125 -0.203125 C 1.316406 -0.347656 1.25 -0.523438 1.25 -0.734375 L 1.25 -9.875 C 1.25 -10.070312 1.320312 -10.238281 1.46875 -10.375 C 1.613281 -10.519531 1.796875 -10.59375 2.015625 -10.59375 C 2.210938 -10.59375 2.382812 -10.519531 2.53125 -10.375 C 2.675781 -10.238281 2.75 -10.070312 2.75 -9.875 L 2.75 -1.40625 Z M 7.09375 -1.40625 "/></g></g></g><g fill="#ffffff" fill-opacity="1"><g transform="translate(230.607434, 252.035484)"><g><path d="M 10.890625 -5.296875 C 10.890625 -4.273438 10.664062 -3.347656 10.21875 -2.515625 C 9.78125 -1.691406 9.171875 -1.039062 8.390625 -0.5625 C 7.617188 -0.0820312 6.742188 0.15625 5.765625 0.15625 C 4.785156 0.15625 3.90625 -0.0820312 3.125 -0.5625 C 2.351562 -1.039062 1.75 -1.691406 1.3125 -2.515625 C 0.875 -3.347656 0.65625 -4.273438 0.65625 -5.296875 C 0.65625 -6.316406 0.875 -7.238281 1.3125 -8.0625 C 1.75 -8.894531 2.351562 -9.550781 3.125 -10.03125 C 3.90625 -10.507812 4.785156 -10.75 5.765625 -10.75 C 6.742188 -10.75 7.617188 -10.507812 8.390625 -10.03125 C 9.171875 -9.550781 9.78125 -8.894531 10.21875 -8.0625 C 10.664062 -7.238281 10.890625 -6.316406 10.890625 -5.296875 Z M 9.328125 -5.296875 C 9.328125 -6.054688 9.175781 -6.738281 8.875 -7.34375 C 8.570312 -7.957031 8.148438 -8.4375 7.609375 -8.78125 C 7.066406 -9.132812 6.453125 -9.3125 5.765625 -9.3125 C 5.078125 -9.3125 4.460938 -9.140625 3.921875 -8.796875 C 3.390625 -8.453125 2.96875 -7.972656 2.65625 -7.359375 C 2.351562 -6.753906 2.203125 -6.066406 2.203125 -5.296875 C 2.203125 -4.535156 2.351562 -3.847656 2.65625 -3.234375 C 2.96875 -2.628906 3.390625 -2.148438 3.921875 -1.796875 C 4.460938 -1.453125 5.078125 -1.28125 5.765625 -1.28125 C 6.453125 -1.28125 7.066406 -1.453125 7.609375 -1.796875 C 8.148438 -2.148438 8.570312 -2.628906 8.875 -3.234375 C 9.175781 -3.847656 9.328125 -4.535156 9.328125 -5.296875 Z M 9.328125 -5.296875 "/></g></g></g><g fill="#ffffff" fill-opacity="1"><g transform="translate(252.022203, 252.035484)"><g><path d="M 9.03125 -5.578125 C 9.238281 -5.578125 9.410156 -5.503906 9.546875 -5.359375 C 9.679688 -5.210938 9.75 -5.039062 9.75 -4.84375 L 9.75 -1.4375 C 9.75 -1.164062 9.628906 -0.953125 9.390625 -0.796875 C 8.921875 -0.492188 8.410156 -0.257812 7.859375 -0.09375 C 7.304688 0.0703125 6.734375 0.15625 6.140625 0.15625 C 5.140625 0.15625 4.21875 -0.0820312 3.375 -0.5625 C 2.53125 -1.050781 1.863281 -1.710938 1.375 -2.546875 C 0.894531 -3.378906 0.65625 -4.296875 0.65625 -5.296875 C 0.65625 -6.296875 0.894531 -7.210938 1.375 -8.046875 C 1.863281 -8.878906 2.53125 -9.535156 3.375 -10.015625 C 4.21875 -10.503906 5.140625 -10.75 6.140625 -10.75 C 6.648438 -10.75 7.140625 -10.691406 7.609375 -10.578125 C 8.078125 -10.472656 8.5 -10.304688 8.875 -10.078125 C 8.988281 -10.015625 9.078125 -9.929688 9.140625 -9.828125 C 9.203125 -9.722656 9.234375 -9.613281 9.234375 -9.5 C 9.234375 -9.289062 9.164062 -9.113281 9.03125 -8.96875 C 8.894531 -8.820312 8.734375 -8.75 8.546875 -8.75 C 8.390625 -8.75 8.253906 -8.785156 8.140625 -8.859375 C 7.484375 -9.160156 6.816406 -9.3125 6.140625 -9.3125 C 5.421875 -9.3125 4.757812 -9.132812 4.15625 -8.78125 C 3.550781 -8.425781 3.070312 -7.941406 2.71875 -7.328125 C 2.375 -6.710938 2.203125 -6.035156 2.203125 -5.296875 C 2.203125 -4.554688 2.375 -3.878906 2.71875 -3.265625 C 3.070312 -2.660156 3.550781 -2.175781 4.15625 -1.8125 C 4.757812 -1.457031 5.421875 -1.28125 6.140625 -1.28125 C 6.484375 -1.28125 6.84375 -1.320312 7.21875 -1.40625 C 7.601562 -1.488281 7.929688 -1.59375 8.203125 -1.71875 L 8.203125 -4.140625 L 6.375 -4.140625 C 6.175781 -4.140625 6.003906 -4.207031 5.859375 -4.34375 C 5.710938 -4.476562 5.640625 -4.644531 5.640625 -4.84375 C 5.640625 -5.050781 5.710938 -5.222656 5.859375 -5.359375 C 6.003906 -5.503906 6.175781 -5.578125 6.375 -5.578125 Z M 9.03125 -5.578125 "/></g></g></g></svg>