<svg xmlns="http://www.w3.org/2000/svg" xmlns:xlink="http://www.w3.org/1999/xlink" width="500" zoomAndPan="magnify" viewBox="0 0 375 374.999991" height="500" preserveAspectRatio="xMidYMid meet" version="1.0"><defs><clipPath id="f4b73cf2c7"><path d="M 75 0 L 282 0 L 282 371 L 75 371 Z M 75 0 " clip-rule="nonzero"/></clipPath><clipPath id="0435a67842"><path d="M 180.273438 -43.507812 L 364.519531 29 L 221.699219 391.910156 L 37.453125 319.398438 Z M 180.273438 -43.507812 " clip-rule="nonzero"/></clipPath><clipPath id="a4710b278d"><path d="M 180.273438 -43.507812 L 364.519531 29 L 221.699219 391.910156 L 37.453125 319.398438 Z M 180.273438 -43.507812 " clip-rule="nonzero"/></clipPath></defs><g clip-path="url(#f4b73cf2c7)"><g clip-path="url(#0435a67842)"><g clip-path="url(#a4710b278d)"><path fill="#ffffff" d="M 115.871094 253 C 125.492188 247.160156 135.371094 243.046875 147.773438 234.472656 C 143.875 235.066406 141.804688 235.359375 138.375 235.628906 C 153.824219 230.125 170.898438 220.496094 180.480469 207.832031 C 185.230469 201.609375 194.121094 178.796875 194.070312 167.023438 C 189.625 169.449219 184.976562 171.960938 180.457031 174.355469 C 185.734375 170.46875 193.785156 162.996094 197.949219 157.820312 C 190.617188 162.601562 182.925781 165.703125 175.316406 168.160156 C 184.792969 163.117188 193.8125 157.300781 197.164062 154.191406 C 201.628906 126.398438 225.710938 111.945312 242.453125 92.988281 L 230.835938 91.566406 C 237.097656 90.796875 243.863281 90.054688 247.617188 87.867188 C 264.914062 70.320312 290.507812 26.488281 277.976562 -4.414062 C 277.675781 10.199219 270.839844 24.964844 258.824219 33.863281 C 257.992188 37.707031 257.386719 40.109375 255.691406 44.636719 L 256.125 35.097656 C 248.789062 44.644531 233.453125 54.191406 225.085938 60.523438 C 223.648438 64.386719 222.269531 67.675781 220.160156 71.953125 L 221.691406 64.382812 C 199.6875 78.96875 174.019531 88.792969 153.988281 103.5625 C 133.015625 118.984375 122.496094 137.921875 120.140625 171.820312 C 117.671875 154.074219 122.792969 135.652344 127.585938 126.722656 C 114.28125 137.15625 103.6875 155.210938 100.320312 171.769531 L 98.367188 167.425781 C 91.402344 182.3125 93.074219 199.917969 97.128906 219.480469 L 92.175781 210.207031 C 94.644531 225.570312 100.761719 240.324219 104.707031 248.691406 C 114.082031 212.101562 130.304688 176.503906 150.820312 147.960938 C 163.714844 130.128906 178.273438 114.992188 194.523438 100.527344 C 202.402344 93.492188 247.183594 60.191406 256.007812 51.402344 C 246.113281 63.347656 202.113281 97.039062 193.082031 105.492188 C 160.773438 135.867188 139.734375 165.3125 120.699219 211.300781 C 115.632812 223.527344 110.292969 239.902344 106.511719 252.976562 L 95.378906 248.59375 C 94.492188 248.246094 93.390625 248.664062 93.015625 249.625 C 92.667969 250.507812 93.085938 251.609375 94.042969 251.988281 L 119.777344 262.113281 C 120.660156 262.460938 121.761719 262.042969 122.140625 261.085938 C 122.488281 260.203125 122.070312 259.101562 121.113281 258.722656 L 109.757812 254.253906 C 112.710938 243.496094 117.804688 227.957031 124.601562 211.558594 C 135.855469 184.476562 150.996094 155.523438 162.429688 144.863281 C 147.035156 165.800781 125.882812 211.550781 115.871094 253 Z M 81.71875 321.820312 C 111.097656 344.109375 151.1875 358.441406 188.023438 364.589844 C 230.058594 371.597656 205.621094 354.058594 181.222656 340.539062 C 171.863281 335.324219 133.644531 313.640625 147.683594 308.265625 C 162.265625 302.59375 194.792969 328.339844 207.714844 318.011719 C 217.222656 310.511719 216.855469 310.367188 232.773438 312.542969 C 235.042969 312.839844 236.027344 312.71875 237.082031 311.769531 C 235.488281 313.441406 233.335938 312.851562 229.742188 312.457031 C 214.253906 310.707031 215.917969 316.214844 208.867188 321.359375 C 197.113281 330.019531 157.320312 307.800781 152.359375 312.832031 C 147.078125 318.246094 191.957031 341.613281 199.191406 346.164062 C 221.886719 360.546875 226.800781 373.378906 197.605469 370.320312 C 157.761719 365.964844 111.304688 346.832031 81.71875 321.820312 Z M 75.667969 284.183594 C 80.214844 294.914062 84.03125 306.207031 81.144531 319.378906 L 81.367188 319.464844 L 92.742188 290.5625 C 91.488281 289.640625 90.949219 287.980469 91.558594 286.433594 C 92.253906 284.664062 94.308594 283.769531 96.078125 284.464844 C 97.847656 285.164062 98.742188 287.21875 98.046875 288.988281 C 97.464844 290.460938 95.910156 291.382812 94.363281 291.199219 L 83.019531 320.03125 L 83.238281 320.117188 C 90.105469 308.515625 100.519531 302.820312 111.238281 298.097656 C 111.152344 287.929688 112.894531 276.351562 115.652344 264.152344 L 95.597656 256.261719 C 89.34375 267.167969 82.6875 276.726562 75.667969 284.183594 Z M 75.667969 284.183594 " fill-opacity="1" fill-rule="evenodd"/></g></g></g></svg>