<svg xmlns="http://www.w3.org/2000/svg" xmlns:xlink="http://www.w3.org/1999/xlink" width="500" zoomAndPan="magnify" viewBox="0 0 375 374.999991" height="500" preserveAspectRatio="xMidYMid meet" version="1.0"><defs><g/></defs><g fill="#ffffff" fill-opacity="1"><g transform="translate(-4.869241, 200.443104)"><g><path d="M 70.015625 -20.734375 C 70.015625 -13.597656 67.519531 -7.972656 62.53125 -3.859375 C 58.050781 -0.160156 52.59375 1.6875 46.15625 1.6875 C 43.914062 1.6875 41.363281 1.601562 38.5 1.4375 C 31.976562 1.0625 28.007812 0.875 26.59375 0.875 C 25.144531 0.875 23.691406 0.9375 22.234375 1.0625 L 15.703125 1.625 C 12.171875 1.625 10.40625 0.914062 10.40625 -0.5 C 10.40625 -2.363281 12.191406 -3.941406 15.765625 -5.234375 C 17.503906 -5.859375 18.375 -6.582031 18.375 -7.40625 C 18.375 -11.894531 18.394531 -15.425781 18.4375 -18 L 18.75 -40.046875 C 18.75 -45.035156 18.644531 -51.078125 18.4375 -58.171875 L 18.1875 -70.515625 C 18.1875 -71.128906 16.554688 -71.988281 13.296875 -73.09375 C 10.035156 -74.195312 8.40625 -75.867188 8.40625 -78.109375 C 8.40625 -80.179688 9.835938 -81.21875 12.703125 -81.21875 C 13.367188 -81.21875 15.84375 -81.03125 20.125 -80.65625 C 22.53125 -80.445312 24.6875 -80.34375 26.59375 -80.34375 C 28.59375 -80.34375 31.59375 -80.457031 35.59375 -80.6875 C 39.601562 -80.914062 42.601562 -81.03125 44.59375 -81.03125 C 48.582031 -81.03125 52.859375 -79.472656 57.421875 -76.359375 C 62.660156 -72.828125 65.28125 -68.78125 65.28125 -64.21875 C 65.28125 -60.0625 64.394531 -56.101562 62.625 -52.34375 C 60.863281 -48.59375 58.78125 -46.113281 56.375 -44.90625 C 60.4375 -43.539062 63.753906 -40.445312 66.328125 -35.625 C 68.785156 -31.101562 70.015625 -26.140625 70.015625 -20.734375 Z M 55.375 -62.96875 C 55.375 -71.394531 49.910156 -75.609375 38.984375 -75.609375 C 33.628906 -75.609375 30.332031 -74.425781 29.09375 -72.0625 C 28.34375 -70.65625 27.96875 -66.859375 27.96875 -60.671875 C 27.96875 -55.179688 28.050781 -51.941406 28.21875 -50.953125 C 28.96875 -46.960938 30.921875 -44.96875 34.078125 -44.96875 C 41.378906 -44.96875 46.628906 -46.128906 49.828125 -48.453125 C 53.523438 -51.191406 55.375 -56.03125 55.375 -62.96875 Z M 61.296875 -22.921875 C 61.296875 -27.773438 59.40625 -31.882812 55.625 -35.25 C 51.84375 -38.613281 47.296875 -40.296875 41.984375 -40.296875 C 37.160156 -40.296875 34.253906 -40.171875 33.265625 -39.921875 C 30.398438 -39.128906 28.96875 -37.054688 28.96875 -33.703125 L 28.96875 -11.515625 C 28.96875 -6.242188 33.203125 -3.609375 41.671875 -3.609375 C 47.234375 -3.609375 51.894531 -5.4375 55.65625 -9.09375 C 59.414062 -12.75 61.296875 -17.359375 61.296875 -22.921875 Z M 61.296875 -22.921875 "/></g></g></g><g fill="#ffffff" fill-opacity="1"><g transform="translate(77.86006, 200.443104)"><g><path d="M 42.921875 -107.375 C 42.921875 -107.050781 42.691406 -106.472656 42.234375 -105.640625 C 41.773438 -104.804688 41.066406 -103.582031 40.109375 -101.96875 C 38.742188 -100.550781 37.019531 -98.265625 34.9375 -95.109375 C 34.769531 -94.691406 34.234375 -92.882812 33.328125 -89.6875 L 29.59375 -76.484375 C 27.175781 -67.847656 23.6875 -55.0625 19.125 -38.125 C 15.382812 -24.289062 13.515625 -17.207031 13.515625 -16.875 C 13.515625 -15.96875 14.285156 -15.140625 15.828125 -14.390625 C 17.148438 -13.765625 18.3125 -13.453125 19.3125 -13.453125 C 19.894531 -13.453125 20.722656 -13.648438 21.796875 -14.046875 C 22.878906 -14.441406 23.710938 -14.640625 24.296875 -14.640625 C 25.578125 -14.640625 26.21875 -13.972656 26.21875 -12.640625 C 26.21875 -10.523438 24 -7.847656 19.5625 -4.609375 C 15.28125 -1.535156 12 0 9.71875 0 C 4.695312 0 2.1875 -2.160156 2.1875 -6.484375 C 2.1875 -7.890625 3.410156 -13.078125 5.859375 -22.046875 C 7.429688 -27.691406 9.007812 -33.335938 10.59375 -38.984375 L 17.8125 -66.578125 C 19.3125 -71.359375 20.785156 -76.15625 22.234375 -80.96875 C 24.429688 -88.070312 25.53125 -92.535156 25.53125 -94.359375 C 25.53125 -95.691406 24.328125 -97.125 21.921875 -98.65625 C 19.515625 -100.195312 18.3125 -101.257812 18.3125 -101.84375 C 18.3125 -102.582031 19.019531 -103.078125 20.4375 -103.328125 C 22.71875 -103.453125 26.078125 -103.867188 30.515625 -104.578125 C 31.097656 -104.742188 32.945312 -105.492188 36.0625 -106.828125 C 38.675781 -107.941406 40.421875 -108.5 41.296875 -108.5 C 42.378906 -108.5 42.921875 -108.125 42.921875 -107.375 Z M 42.921875 -107.375 "/></g></g></g><g fill="#ffffff" fill-opacity="1"><g transform="translate(119.483504, 200.443104)"><g><path d="M 45.34375 -36.75 C 45.34375 -28.613281 42.625 -20.640625 37.1875 -12.828125 C 31.207031 -4.273438 24.332031 0 16.5625 0 C 11.539062 0 7.703125 -1.742188 5.046875 -5.234375 C 2.640625 -8.390625 1.4375 -12.539062 1.4375 -17.6875 C 1.4375 -26.238281 4.03125 -34.171875 9.21875 -41.484375 C 14.945312 -49.578125 21.921875 -53.625 30.140625 -53.625 C 40.273438 -53.625 45.34375 -48 45.34375 -36.75 Z M 36.8125 -36.875 C 36.8125 -43.019531 34.363281 -46.09375 29.46875 -46.09375 C 24.351562 -46.09375 19.617188 -42.375 15.265625 -34.9375 C 11.359375 -28.257812 9.40625 -22.15625 9.40625 -16.625 C 9.40625 -11.226562 12.082031 -8.53125 17.4375 -8.53125 C 22.957031 -8.53125 27.691406 -11.976562 31.640625 -18.875 C 35.085938 -24.894531 36.8125 -30.894531 36.8125 -36.875 Z M 36.8125 -36.875 "/></g></g></g><g fill="#ffffff" fill-opacity="1"><g transform="translate(174.310647, 200.443104)"><g><path d="M 50.015625 -44.71875 C 50.015625 -43.351562 48.914062 -42.421875 46.71875 -41.921875 C 43.9375 -41.296875 42.148438 -40.460938 41.359375 -39.421875 C 40.734375 -38.640625 40.234375 -36.773438 39.859375 -33.828125 C 39.441406 -30.378906 39.085938 -28.257812 38.796875 -27.46875 C 37.429688 -23.6875 34.34375 -20.363281 29.53125 -17.5 C 25.164062 -14.925781 20.78125 -13.429688 16.375 -13.015625 C 12.726562 -10.734375 10.90625 -7.910156 10.90625 -4.546875 C 10.90625 -2.640625 13.476562 -0.375 18.625 2.25 C 26.46875 6.226562 31.222656 8.820312 32.890625 10.03125 C 38.035156 13.6875 40.609375 17.734375 40.609375 22.171875 C 40.609375 27.691406 37.304688 31.820312 30.703125 34.5625 C 25.804688 36.601562 20.097656 37.625 13.578125 37.625 C 6.472656 37.625 -0.148438 36.378906 -6.296875 33.890625 C -14.347656 30.609375 -18.375 25.957031 -18.375 19.9375 C -18.375 15.820312 -15.96875 12.582031 -11.15625 10.21875 C -7.289062 8.300781 -3.050781 7.34375 1.5625 7.34375 C 4.757812 7.34375 6.359375 6.492188 6.359375 4.796875 C 6.359375 4.585938 6.335938 4.398438 6.296875 4.234375 C 3.429688 1.160156 2 -1.472656 2 -3.671875 C 2 -5.953125 3.296875 -8.378906 5.890625 -10.953125 C 8.484375 -13.535156 9.882812 -15.757812 10.09375 -17.625 C 5.894531 -22.8125 3.796875 -27.816406 3.796875 -32.640625 C 3.796875 -37.367188 5.5 -41.957031 8.90625 -46.40625 C 12.5625 -51.21875 16.671875 -53.625 21.234375 -53.625 C 25.097656 -53.625 31.390625 -51.796875 40.109375 -48.140625 C 42.929688 -49.097656 44.90625 -49.578125 46.03125 -49.578125 C 48.6875 -49.578125 50.015625 -47.957031 50.015625 -44.71875 Z M 31.953125 -40.546875 C 31.953125 -42.703125 31.347656 -44.550781 30.140625 -46.09375 C 28.859375 -47.789062 27.160156 -48.640625 25.046875 -48.640625 C 21.097656 -48.640625 17.816406 -46.148438 15.203125 -41.171875 C 12.992188 -36.972656 11.890625 -32.695312 11.890625 -28.34375 C 11.890625 -26.175781 12.453125 -24.222656 13.578125 -22.484375 C 14.828125 -20.535156 16.488281 -19.5625 18.5625 -19.5625 C 22.46875 -19.5625 25.789062 -22.175781 28.53125 -27.40625 C 30.8125 -31.8125 31.953125 -36.191406 31.953125 -40.546875 Z M 31.640625 21.296875 C 31.640625 17.484375 28.941406 14.703125 23.546875 12.953125 C 19.847656 11.753906 15.550781 11.15625 10.65625 11.15625 C 5.664062 11.15625 1.363281 11.671875 -2.25 12.703125 C -7.6875 14.328125 -10.40625 16.925781 -10.40625 20.5 C -10.40625 24.769531 -7.332031 27.921875 -1.1875 29.953125 C 3.09375 31.328125 7.972656 32.015625 13.453125 32.015625 C 17.234375 32.015625 20.992188 31.144531 24.734375 29.40625 C 29.335938 27.320312 31.640625 24.617188 31.640625 21.296875 Z M 31.640625 21.296875 "/></g></g></g><g fill="#ffffff" fill-opacity="1"><g transform="translate(234.743135, 200.443104)"><g><path d="M 29.59375 -66.828125 C 29.59375 -64.835938 28.957031 -63.238281 27.6875 -62.03125 C 26.414062 -60.832031 24.785156 -60.234375 22.796875 -60.234375 C 18.640625 -60.234375 16.5625 -62.222656 16.5625 -66.203125 C 16.5625 -68.203125 17.21875 -69.851562 18.53125 -71.15625 C 19.84375 -72.46875 21.492188 -73.125 23.484375 -73.125 C 27.554688 -73.125 29.59375 -71.023438 29.59375 -66.828125 Z M 26.53125 -50.953125 C 26.53125 -49.617188 25.785156 -47.707031 24.296875 -45.21875 C 23.128906 -43.394531 21.984375 -41.546875 20.859375 -39.671875 C 19.203125 -36.222656 17.523438 -31.945312 15.828125 -26.84375 C 13.828125 -20.78125 12.828125 -16.398438 12.828125 -13.703125 C 12.828125 -11.710938 14.238281 -10.71875 17.0625 -10.71875 C 17.6875 -10.71875 18.492188 -11.015625 19.484375 -11.609375 C 20.484375 -12.210938 21.273438 -12.515625 21.859375 -12.515625 C 22.984375 -12.515625 23.546875 -11.957031 23.546875 -10.84375 C 23.546875 -8.71875 21.425781 -6.328125 17.1875 -3.671875 C 13.207031 -1.222656 10.050781 0 7.71875 0 C 3.945312 0 2.0625 -2.53125 2.0625 -7.59375 C 2.0625 -10.789062 3.566406 -15.992188 6.578125 -23.203125 C 9.585938 -30.410156 11.09375 -34.945312 11.09375 -36.8125 C 11.09375 -37.644531 10.195312 -38.285156 8.40625 -38.734375 C 5.957031 -39.316406 4.691406 -39.628906 4.609375 -39.671875 C 4.773438 -41.378906 7.328125 -44.128906 12.265625 -47.921875 C 17.210938 -51.722656 20.578125 -53.625 22.359375 -53.625 C 25.140625 -53.625 26.53125 -52.734375 26.53125 -50.953125 Z M 26.53125 -50.953125 "/></g></g></g><g fill="#ffffff" fill-opacity="1"><g transform="translate(274.934102, 200.443104)"><g><path d="M 62.34375 -103.953125 C 62.34375 -103.035156 61.972656 -101.894531 61.234375 -100.53125 C 60.359375 -99.03125 59.503906 -98.28125 58.671875 -98.28125 C 57.878906 -98.28125 56.722656 -98.394531 55.203125 -98.625 C 53.691406 -98.851562 52.546875 -98.96875 51.765625 -98.96875 C 48.023438 -98.96875 45.117188 -97.285156 43.046875 -93.921875 C 42.335938 -92.804688 40.65625 -87.597656 38 -78.296875 C 35.34375 -68.992188 34.015625 -63.695312 34.015625 -62.40625 C 34.015625 -61.90625 34.445312 -61.4375 35.3125 -61 C 36.1875 -60.570312 36.894531 -60.359375 37.4375 -60.359375 C 37.9375 -60.359375 38.671875 -60.523438 39.640625 -60.859375 C 40.617188 -61.191406 41.359375 -61.359375 41.859375 -61.359375 C 43.679688 -61.359375 44.59375 -60.210938 44.59375 -57.921875 C 44.59375 -54.679688 43.535156 -52.773438 41.421875 -52.203125 C 39.140625 -51.867188 36.851562 -51.554688 34.5625 -51.265625 C 31.65625 -50.347656 29.5625 -47.9375 28.28125 -44.03125 C 28.195312 -43.78125 27.632812 -41.394531 26.59375 -36.875 C 26.09375 -34.71875 23.519531 -25.3125 18.875 -8.65625 L 11.03125 19.4375 C 10.40625 21.71875 9.15625 23.9375 7.28125 26.09375 C 5.164062 28.582031 3.070312 29.828125 1 29.828125 C -1.90625 29.828125 -4.601562 29.1875 -7.09375 27.90625 C -10.082031 26.320312 -11.578125 24.203125 -11.578125 21.546875 C -11.578125 18.847656 -10.125 17.5 -7.21875 17.5 C -6.726562 17.5 -5.984375 17.601562 -4.984375 17.8125 C -3.984375 18.019531 -3.234375 18.125 -2.734375 18.125 C -0.617188 18.125 1.039062 17.234375 2.25 15.453125 C 3.195312 14.035156 6.367188 3.921875 11.765625 -14.890625 C 17.171875 -33.703125 19.875 -44.0625 19.875 -45.96875 C 19.875 -47.332031 19.269531 -48.015625 18.0625 -48.015625 C 17.394531 -48.015625 16.4375 -47.898438 15.1875 -47.671875 C 13.945312 -47.453125 12.992188 -47.34375 12.328125 -47.34375 C 10.296875 -47.34375 9.28125 -48.234375 9.28125 -50.015625 C 9.28125 -52.753906 11.460938 -54.851562 15.828125 -56.3125 C 20.679688 -57.96875 23.421875 -59.503906 24.046875 -60.921875 C 24.171875 -61.171875 24.707031 -63.242188 25.65625 -67.140625 L 28.96875 -80.40625 C 31.414062 -90.25 33.84375 -96.875 36.25 -100.28125 C 40.15625 -105.757812 46.34375 -108.5 54.8125 -108.5 C 56.300781 -108.5 57.859375 -108.101562 59.484375 -107.3125 C 61.390625 -106.40625 62.34375 -105.285156 62.34375 -103.953125 Z M 62.34375 -103.953125 "/></g></g></g><g fill="#ffffff" fill-opacity="1"><g transform="translate(327.955078, 200.443104)"><g><path d="M 43.46875 -45.09375 C 43.46875 -33.550781 40.046875 -21.675781 33.203125 -9.46875 C 26.722656 2.03125 18.625 11.5 8.90625 18.9375 C -0.601562 26.195312 -11.609375 29.828125 -24.109375 29.828125 C -26.972656 29.828125 -29.835938 29.082031 -32.703125 27.59375 C -36.148438 25.851562 -37.875 23.691406 -37.875 21.109375 C -37.875 19.703125 -36.875 19 -34.875 19 L -34.5 19 C -30.976562 21.570312 -28.863281 23.046875 -28.15625 23.421875 C -25.5 24.992188 -23.085938 25.78125 -20.921875 25.78125 C -8.710938 25.78125 2.285156 17.789062 12.078125 1.8125 C 15.734375 -4.164062 17.5625 -10.5 17.5625 -17.1875 C 17.5625 -20.382812 17.144531 -24.375 16.3125 -29.15625 C 15.363281 -34.71875 14.242188 -38.410156 12.953125 -40.234375 C 12.910156 -40.273438 11.625 -41.601562 9.09375 -44.21875 C 7.800781 -45.507812 7.15625 -47.273438 7.15625 -49.515625 C 7.15625 -52.253906 8.960938 -53.625 12.578125 -53.625 C 15.023438 -53.625 17.039062 -52.234375 18.625 -49.453125 C 19.457031 -47.960938 20.640625 -41.941406 22.171875 -31.390625 C 23.585938 -22.046875 25.207031 -17 27.03125 -16.25 C 29.769531 -16.625 32.117188 -20.570312 34.078125 -28.09375 C 35.566406 -34.03125 36.3125 -39.09375 36.3125 -43.28125 C 36.3125 -44.070312 36.207031 -45.265625 36 -46.859375 C 35.789062 -48.460938 35.6875 -49.660156 35.6875 -50.453125 C 35.6875 -52.566406 36.765625 -53.625 38.921875 -53.625 C 41.953125 -53.625 43.46875 -50.78125 43.46875 -45.09375 Z M 43.46875 -45.09375 "/></g></g></g></svg>